REM DIRINDEX 1\2\6,1\2\7,1\2\8,1\2\9,1\3\10,1\3\11,1\4\12,1\4\13,1\4\14,1\5\15,1\5\16,1\5\17
REM DIRNAME cjc029,folder01,folder02,folder03,folder04,folder05,folder06,folder07,folder08,folder09,folder10,folder11,folder12,folder13,folder14,folder15,folder16
TITLE ""
FILE "1400_2_sec01_0017_0033.mp3" MP3
  TRACK 01 AUDIO
    TITLE "0:"
    INDEX 01 00:00:00
  TRACK 02 AUDIO
    TITLE "13:cjc029_1597"
    INDEX 01 00:00:19
  TRACK 03 AUDIO
    TITLE "0:"
    INDEX 01 00:01:19
  TRACK 04 AUDIO
    TITLE "14:cjc029_1598"
    INDEX 01 00:01:26
  TRACK 05 AUDIO
    TITLE "0:"
    INDEX 01 00:04:01
  TRACK 06 AUDIO
    TITLE "13:cjc029_1599"
    INDEX 01 00:04:58
  TRACK 07 AUDIO
    TITLE "0:"
    INDEX 01 00:05:65
  TRACK 08 AUDIO
    TITLE "14:cjc029_1600"
    INDEX 01 00:05:69
  TRACK 09 AUDIO
    TITLE "0:"
    INDEX 01 00:06:73
  TRACK 10 AUDIO
    TITLE "13:cjc029_1601"
    INDEX 01 00:07:56
  TRACK 11 AUDIO
    TITLE "0:"
    INDEX 01 00:08:73
  TRACK 12 AUDIO
    TITLE "14:cjc029_1602"
    INDEX 01 00:09:04
  TRACK 13 AUDIO
    TITLE "0:"
    INDEX 01 00:12:07
  TRACK 14 AUDIO
    TITLE "13:cjc029_1603"
    INDEX 01 00:12:61
  TRACK 15 AUDIO
    TITLE "0:"
    INDEX 01 00:13:61
  TRACK 16 AUDIO
    TITLE "14:cjc029_1604"
    INDEX 01 00:13:67
  TRACK 17 AUDIO
    TITLE "0:"
    INDEX 01 00:16:57
  TRACK 18 AUDIO
    TITLE "13:cjc029_1605"
    INDEX 01 00:17:39
  TRACK 19 AUDIO
    TITLE "0:"
    INDEX 01 00:18:46
  TRACK 20 AUDIO
    TITLE "14:cjc029_1606"
    INDEX 01 00:18:52
  TRACK 21 AUDIO
    TITLE "0:"
    INDEX 01 00:22:64
  TRACK 22 AUDIO
    TITLE "13:cjc029_1607"
    INDEX 01 00:23:48
  TRACK 23 AUDIO
    TITLE "0:"
    INDEX 01 00:24:49
  TRACK 24 AUDIO
    TITLE "14:cjc029_1608"
    INDEX 01 00:24:55
  TRACK 25 AUDIO
    TITLE "0:"
    INDEX 01 00:28:02
  TRACK 26 AUDIO
    TITLE "13:cjc029_1609"
    INDEX 01 00:28:60
  TRACK 27 AUDIO
    TITLE "0:"
    INDEX 01 00:29:58
  TRACK 28 AUDIO
    TITLE "14:cjc029_1610"
    INDEX 01 00:29:62
  TRACK 29 AUDIO
    TITLE "0:"
    INDEX 01 00:34:16
  TRACK 30 AUDIO
    TITLE "13:cjc029_1611"
    INDEX 01 00:35:02
  TRACK 31 AUDIO
    TITLE "0:"
    INDEX 01 00:36:01
  TRACK 32 AUDIO
    TITLE "14:cjc029_1612"
    INDEX 01 00:36:07
  TRACK 33 AUDIO
    TITLE "0:"
    INDEX 01 00:40:68
  TRACK 34 AUDIO
    TITLE "13:cjc029_1613"
    INDEX 01 00:41:47
  TRACK 35 AUDIO
    TITLE "0:"
    INDEX 01 00:42:55
  TRACK 36 AUDIO
    TITLE "14:cjc029_1614"
    INDEX 01 00:42:65
  TRACK 37 AUDIO
    TITLE "0:"
    INDEX 01 00:45:35
  TRACK 38 AUDIO
    TITLE "13:cjc029_1615"
    INDEX 01 00:46:17
  TRACK 39 AUDIO
    TITLE "0:"
    INDEX 01 00:47:21
  TRACK 40 AUDIO
    TITLE "14:cjc029_1616"
    INDEX 01 00:47:25
  TRACK 41 AUDIO
    TITLE "0:"
    INDEX 01 00:50:01
  TRACK 42 AUDIO
    TITLE "13:cjc029_1617"
    INDEX 01 00:50:58
  TRACK 43 AUDIO
    TITLE "0:"
    INDEX 01 00:51:65
  TRACK 44 AUDIO
    TITLE "14:cjc029_1618"
    INDEX 01 00:51:69
  TRACK 45 AUDIO
    TITLE "0:"
    INDEX 01 00:55:20
  TRACK 46 AUDIO
    TITLE "13:cjc029_1619"
    INDEX 01 00:56:04
  TRACK 47 AUDIO
    TITLE "0:"
    INDEX 01 00:57:13
  TRACK 48 AUDIO
    TITLE "14:cjc029_1620"
    INDEX 01 00:57:17
  TRACK 49 AUDIO
    TITLE "0:"
    INDEX 01 01:00:43
  TRACK 50 AUDIO
    TITLE "13:cjc029_1621"
    INDEX 01 01:01:25
  TRACK 51 AUDIO
    TITLE "0:"
    INDEX 01 01:02:28
  TRACK 52 AUDIO
    TITLE "14:cjc029_1622"
    INDEX 01 01:02:30
  TRACK 53 AUDIO
    TITLE "0:"
    INDEX 01 01:05:58
  TRACK 54 AUDIO
    TITLE "13:cjc029_1623"
    INDEX 01 01:06:42
  TRACK 55 AUDIO
    TITLE "0:"
    INDEX 01 01:07:43
  TRACK 56 AUDIO
    TITLE "14:cjc029_1624"
    INDEX 01 01:07:47
  TRACK 57 AUDIO
    TITLE "0:"
    INDEX 01 01:11:56
  TRACK 58 AUDIO
    TITLE "13:cjc029_1625"
    INDEX 01 01:12:40
  TRACK 59 AUDIO
    TITLE "0:"
    INDEX 01 01:13:55
  TRACK 60 AUDIO
    TITLE "14:cjc029_1626"
    INDEX 01 01:13:63
  TRACK 61 AUDIO
    TITLE "0:"
    INDEX 01 01:17:22
  TRACK 62 AUDIO
    TITLE "13:cjc029_1627"
    INDEX 01 01:18:07
  TRACK 63 AUDIO
    TITLE "0:"
    INDEX 01 01:19:19
  TRACK 64 AUDIO
    TITLE "14:cjc029_1628"
    INDEX 01 01:19:25
  TRACK 65 AUDIO
    TITLE "0:"
    INDEX 01 01:22:25
  TRACK 66 AUDIO
    TITLE "13:cjc029_1629"
    INDEX 01 01:23:11
  TRACK 67 AUDIO
    TITLE "0:"
    INDEX 01 01:24:20
  TRACK 68 AUDIO
    TITLE "14:cjc029_1630"
    INDEX 01 01:24:26
  TRACK 69 AUDIO
    TITLE "0:"
    INDEX 01 01:27:03
